<?xml version="1.0" ?><svg xmlns="http://www.w3.org/2000/svg" xmlns:xlink="http://www.w3.org/1999/xlink" version="1.1" viewBox="0 0 512 512" style="enable-background:new 0 0 512 512;" xml:space="preserve"><g id="_x32_2_x2C__Problem_Solving_x2C__Solution_x2C__Strategy_x2C__Creativity_x2C__Analysis_x2C__Decision"><g><g><path style="fill:#9DCAFC;" d="M290.998,434.258v24.018c0,8.279-6.72,14.999-14.999,14.999h-39.997     c-8.279,0-14.999-6.72-14.999-14.999v-24.018H290.998z"/><path style="fill:#FFFFFF;" d="M256,183.294v39.997l-69.995,32.708l-69.995-32.708v-0.01C116.019,146.036,178.765,83.3,256,83.3     v49.997c-13.809,0-24.998,11.189-24.998,24.998S242.191,183.294,256,183.294z"/><path style="fill:#FFFFFF;" d="M350.994,223.291h44.997c0,52.967-29.418,99.064-72.805,122.842     c-13.634,7.468-22.189,21.65-22.189,37.148l-19.999,14.999L256,383.281l-17.332-84.995L256,223.291h44.997     c0-13.809,11.189-24.998,24.998-24.998S350.994,209.482,350.994,223.291z"/><path style="fill:#9DCAFC;" d="M256,268.289c13.809,0,24.998,11.189,24.998,24.998S269.809,318.285,256,318.285v64.996     l-21.665,14.999l-23.332-14.999c0-15.489-8.519-29.668-22.109-37.108c-43.437-23.768-72.885-69.885-72.885-122.882h44.997     c0,13.809,11.189,24.998,24.998,24.998s24.998-11.189,24.998-24.998H256V268.289z"/><path style="fill:#9DCAFC;" d="M501.444,211.452c6.05,6.73,6.05,16.939,0,23.668l-33.348,37.048     c-2.96,3.29-7.05,4.97-11.149,4.97c-3.58,0-7.16-1.27-10.029-3.85c-6.16-5.54-6.66-15.029-1.12-21.189l12.439-13.809H415.99     v-29.998h42.247l-12.439-13.819c-2.58-2.87-3.85-6.45-3.85-10.029c0-4.1,1.68-8.189,4.97-11.149     c6.16-5.55,15.639-5.05,21.179,1.11L501.444,211.452z"/><path style="fill:#9DCAFC;" d="M426.349,322.935c8.269,0.43,14.629,7.49,14.189,15.769l-2.62,49.777     c-0.47,9.029-7.689,16.249-16.729,16.729l-49.777,2.62c-0.27,0.01-0.54,0.02-0.81,0.02c-7.919,0-14.529-6.21-14.959-14.209     c-0.43-8.269,5.92-15.329,14.189-15.769l18.559-0.98l-29.868-29.868l21.209-21.209l29.878,29.868l0.97-18.559     c0.43-7.999,7.04-14.209,14.959-14.209C425.809,322.915,426.079,322.925,426.349,322.935z"/><path style="fill:#FFFFFF;" d="M425.989,178.294h-29.998c0-13.809-11.189-24.998-24.998-24.998s-24.998,11.189-24.998,24.998     h-44.997v-39.997c-13.809,0-24.998-11.189-24.998-24.998S287.188,88.3,300.997,88.3V53.302     C370.033,53.302,425.989,109.259,425.989,178.294z"/><path style="fill:#9DCAFC;" d="M305.997,383.281c8.279,0,14.999,6.71,14.999,14.999c0,8.263-6.703,14.999-14.999,14.999     L256,425.238l-49.997-11.959c-8.279,0-14.999-6.72-14.999-14.999c0-8.266,6.706-14.999,14.999-14.999     C249.744,383.281,263.094,383.281,305.997,383.281z"/><path style="fill:#9DCAFC;" d="M156.357,52.932c0.43,8.279-5.92,15.339-14.189,15.769l-18.559,0.98l29.868,29.868l-21.209,21.219     L102.39,90.89l-0.97,18.559c-0.43,8.009-7.05,14.219-14.979,14.219c-0.26,0-0.52-0.01-0.79-0.02     c-8.269-0.44-14.629-7.5-14.189-15.769l2.62-49.777c0.47-9.039,7.69-16.259,16.729-16.739l49.777-2.62     c0.27-0.01,0.53-0.02,0.79-0.02C149.307,38.723,155.927,44.933,156.357,52.932z"/><path style="fill:#9DCAFC;" d="M96.011,208.292v29.998H53.763L66.203,252.1c2.58,2.87,3.85,6.45,3.85,10.029     c0,4.1-1.68,8.189-4.97,11.159c-6.16,5.54-15.639,5.04-21.179-1.12l-33.348-37.048c-6.05-6.73-6.05-16.939,0-23.668     l33.348-37.048c2.96-3.29,7.05-4.97,11.149-4.97c3.57,0,7.16,1.28,10.029,3.86c6.16,5.54,6.66,15.019,1.12,21.179l-12.439,13.819     H96.011z"/><path style="fill:#9DCAFC;" d="M305.997,413.279c8.279,0,14.999,6.71,14.999,14.999c0,8.263-6.703,14.999-14.999,14.999     c-11.248,0-88.668,0-99.994,0c-8.279,0-14.999-6.72-14.999-14.999c0-8.266,6.706-14.999,14.999-14.999H305.997z"/><path style="fill:#4269A7;" d="M135.799,124.3l21.213-21.213c1.955-1.953,1.95-5.122,0-7.07l-21.934-21.934l7.351-0.387     c11.012-0.58,19.5-10.01,18.92-21.022c-0.58-11.012-10.031-19.489-21.022-18.92l-49.777,2.619     c-11.624,0.612-20.851,9.839-21.462,21.463l-2.62,49.777c-0.582,11.037,7.881,20.44,18.921,21.022     c11.084,0.577,20.445-7.974,21.022-18.92l0.387-7.35l21.933,21.933C130.682,126.255,133.851,126.25,135.799,124.3z      M105.928,87.358c-3.055-3.055-8.301-1.041-8.528,3.272l-0.976,18.561c-0.29,5.506-5.026,9.777-10.512,9.459     c-5.506-0.29-9.749-5.005-9.459-10.511l2.62-49.777c0.342-6.501,5.502-11.661,12.002-12.003l49.777-2.619     c5.427-0.297,10.218,3.888,10.511,9.459c0.29,5.506-3.954,10.221-9.459,10.511l-18.561,0.977     c-4.315,0.227-6.327,5.475-3.272,8.528l26.336,26.336l-14.142,14.142L105.928,87.358z"/><path style="fill:#4269A7;" d="M96.011,203.29H64.991l4.924-5.471c7.394-8.217,6.729-20.849-1.487-28.243     c-8.173-7.357-20.818-6.764-28.242,1.486l-33.345,37.05c-7.789,8.652-7.789,21.701-0.001,30.353l33.345,37.05     c7.378,8.198,20.011,8.897,28.244,1.486c8.196-7.375,8.863-20.046,1.487-28.243l-4.924-5.47h31.018c2.762,0,5-2.238,5-5V208.29     C101.01,205.528,98.772,203.29,96.011,203.29z M91.011,233.288H53.766c-4.321,0-6.605,5.133-3.717,8.344l12.434,13.815     c3.688,4.098,3.354,10.434-0.743,14.122c-4.183,3.767-10.489,3.293-14.122-0.743l-33.346-37.05     c-4.354-4.839-4.354-12.136,0.001-16.975l33.346-37.05c3.689-4.1,10.006-4.447,14.12-0.742     c4.108,3.696,4.441,10.013,0.743,14.121l-12.434,13.816c-2.889,3.212-0.603,8.344,3.717,8.344h37.246V233.288z"/><path style="fill:#4269A7;" d="M426.613,317.941c-10.991-0.576-20.442,7.907-21.022,18.92l-0.387,7.349l-21.933-21.932     c-1.951-1.953-5.119-1.953-7.07,0l-21.212,21.212c-1.955,1.953-1.95,5.122,0,7.07l21.933,21.934l-7.35,0.387     c-11.012,0.58-19.5,10.011-18.92,21.023c0.561,10.657,9.409,18.948,19.959,18.948c0.968,0-2.022,0.125,50.84-2.648     c11.624-0.612,20.85-9.838,21.462-21.462l2.62-49.777C446.116,327.925,437.653,318.523,426.613,317.941z M435.548,338.437     l-2.62,49.777c-0.342,6.501-5.502,11.66-12.002,12.002l-49.777,2.62c-5.518,0.296-10.221-3.953-10.511-9.459     c-0.29-5.507,3.954-10.222,9.459-10.512l18.561-0.977c4.315-0.227,6.327-5.475,3.272-8.528l-26.336-26.337l14.142-14.141     l26.336,26.335c3.054,3.056,8.301,1.043,8.528-3.272l0.977-18.56c0.29-5.506,5.037-9.743,10.512-9.459     C431.594,328.216,435.838,332.931,435.548,338.437z"/><path style="fill:#4269A7;" d="M505.16,208.112l-33.345-37.05c-7.377-8.196-20.047-8.862-28.244-1.486     c-8.196,7.377-8.863,20.047-1.487,28.243l4.924,5.471H415.99c-2.762,0-5,2.238-5,5v29.998c0,2.762,2.238,5,5,5h31.02     l-4.924,5.471c-7.394,8.217-6.729,20.847,1.487,28.243c8.208,7.387,20.848,6.729,28.242-1.487l33.345-37.049     C512.947,229.814,512.947,216.764,505.16,208.112z M497.727,231.776l-33.346,37.049c-3.64,4.046-9.946,4.503-14.12,0.743     c-4.108-3.698-4.441-10.013-0.743-14.121l12.434-13.816c2.889-3.212,0.603-8.344-3.717-8.344H420.99v-19.999h37.245     c4.321,0,6.605-5.133,3.717-8.344l-12.434-13.816c-3.688-4.098-3.354-10.433,0.743-14.121c4.098-3.691,10.434-3.356,14.122,0.742     l33.345,37.05C502.082,219.639,502.082,226.938,497.727,231.776z"/><path style="fill:#4269A7;" d="M325.996,398.277c0-10.913-8.789-19.797-19.658-19.981c1.588-11.616,8.66-21.974,19.249-27.778     c46.511-25.49,75.404-74.24,75.404-127.229c0-2.762-2.238-5-5-5h-40.414c-2.387-14.169-14.743-24.998-29.581-24.998     c-14.838,0-27.195,10.829-29.581,24.998H261v-34.998c0-2.762-2.238-5-5-5c-11.028,0-19.999-8.971-19.999-19.999     c0-11.028,8.971-19.999,19.999-19.999c2.762,0,5-2.238,5-5V83.317c0-0.007,0.002-0.013,0.002-0.019c0-2.762-2.238-5-5-5     c-0.005,0,0.003,0-0.002,0c-79.936,0-144.985,65.041-144.991,144.979c0,0.003,0,0.007,0,0.01c0,0,0,0.001,0,0.002     c0,0.001,0,0.001,0,0.002c0.001,53.025,28.925,101.792,75.486,127.273c10.545,5.77,17.588,16.112,19.169,27.732     c-10.87,0.184-19.66,9.068-19.66,19.982c0,5.975,2.647,11.331,6.815,14.999c-4.167,3.668-6.815,9.024-6.815,14.999     c0,11.028,8.971,19.999,19.999,19.999h9.999v9.999c0,11.028,8.971,19.999,19.999,19.999h39.997     c11.028,0,19.999-8.971,19.999-19.999v-9.999h9.999c11.028,0,19.999-8.971,19.999-19.999c0-5.975-2.647-11.331-6.815-14.999     C323.349,409.609,325.996,404.252,325.996,398.277z M300.997,228.288c2.762,0,5-2.238,5-5c0-11.028,8.971-19.999,19.999-19.999     c11.028,0,19.999,8.971,19.999,19.999c0,2.762,2.238,5,5,5h39.899c-1.75,47.385-28.273,90.531-70.113,113.46     c-13.795,7.561-22.875,21.259-24.515,36.53H261v-55.413c14.169-2.387,24.998-14.743,24.998-29.581S275.169,266.09,261,263.703     v-35.415H300.997z M251.001,88.399v40.312c-14.169,2.387-24.998,14.743-24.998,29.581c0,14.838,10.829,27.195,24.998,29.581     v30.415h-39.997c-2.762,0-5,2.238-5,5c0,11.028-8.971,19.999-19.999,19.999c-11.028,0-19.999-8.971-19.999-19.999     c0-2.762-2.238-5-5-5h-39.895C123.69,147.823,180.536,90.979,251.001,88.399z M191.296,341.791     c-41.887-22.921-68.438-66.082-70.189-113.502h35.316c2.387,14.169,14.743,24.998,29.581,24.998     c14.838,0,27.195-10.829,29.581-24.998h35.415v39.997c0,2.762,2.238,5,5,5c11.028,0,19.999,8.971,19.999,19.999     s-8.971,19.999-19.999,19.999c-2.762,0-5,2.238-5,5v59.996h-35.264C214.103,363,205.05,349.317,191.296,341.791z      M285.998,458.273c0,5.513-4.486,9.999-9.999,9.999h-39.997c-5.513,0-9.999-4.486-9.999-9.999v-9.999h59.996V458.273z      M315.996,428.275c0,5.513-4.486,9.999-9.999,9.999c-12.31,0-87.287,0-99.994,0c-5.513,0-9.999-4.486-9.999-9.999     c0-5.513,4.486-9.999,9.999-9.999h99.994C311.51,418.276,315.996,422.762,315.996,428.275z M206.004,408.277     c-5.513,0-9.999-4.486-9.999-9.999c0-5.513,4.486-9.999,9.999-9.999c21.709,0,78.229,0,99.994,0c5.513,0,9.999,4.486,9.999,9.999     c0,5.513-4.486,9.999-9.999,9.999H206.004z"/><path style="fill:#4269A7;" d="M295.998,142.877v35.415c0,2.762,2.238,5,5,5h44.997c2.762,0,5-2.238,5-5     c0-11.028,8.971-19.999,19.999-19.999c11.028,0,19.999,8.971,19.999,19.999c0,2.762,2.238,5,5,5h29.998c2.762,0,5-2.238,5-5     c0-71.678-58.314-129.992-129.992-129.992c-2.762,0-5,2.238-5,5v30.415c-14.169,2.387-24.998,14.743-24.998,29.581     S281.829,140.49,295.998,142.877z M300.997,93.297c2.762,0,5-2.238,5-5V58.411c62.194,2.563,112.318,52.686,114.881,114.881     h-20.304c-2.387-14.169-14.743-24.998-29.581-24.998c-14.838,0-27.195,10.829-29.581,24.998h-35.415v-34.998c0-2.762-2.238-5-5-5     c-11.028,0-19.999-8.971-19.999-19.999S289.97,93.297,300.997,93.297z"/></g></g></g><g id="Layer_1"/></svg>